<svg width="18" height="18" viewBox="0 0 18 18" fill="none" xmlns="http://www.w3.org/2000/svg">
<path d="M7.59961 9.08594H9.40039C11.0936 9.08616 12.5 10.5169 12.5 12.3105C12.4999 12.4934 12.3936 12.6599 12.2275 12.7363L11.4863 13.0762C9.59069 13.9477 7.40931 13.9477 5.51367 13.0762L4.77246 12.7363C4.60636 12.6599 4.50008 12.4934 4.5 12.3105C4.5 10.5169 5.90637 9.08616 7.59961 9.08594ZM8.5 3.5C9.53151 3.5 10.4002 4.37337 10.4004 5.48242C10.4004 6.59163 9.53162 7.46582 8.5 7.46582C7.46838 7.46582 6.59961 6.59163 6.59961 5.48242C6.59978 4.37337 7.46849 3.5 8.5 3.5Z" stroke="#10E5DE"/>
</svg>
