<svg width="134" height="45" viewBox="0 0 134 45" fill="none" xmlns="http://www.w3.org/2000/svg">
<g opacity="0.51" filter="url(#filter0_f_128_100)">
<path fill-rule="evenodd" clip-rule="evenodd" d="M23.0281 12.0833C17.06 12.0833 12.2229 16.7344 12.2229 22.4729C12.2229 27.0625 15.318 30.9573 19.6123 32.3323C20.1529 32.4261 20.3479 32.1063 20.3479 31.8313C20.3479 31.5844 20.3392 30.9302 20.336 30.0646C17.3297 30.6917 16.6949 28.6708 16.6949 28.6708C16.2052 27.4708 15.4957 27.1511 15.4957 27.1511C14.5152 26.5063 15.5704 26.5208 15.5704 26.5208C16.6559 26.5938 17.2247 27.5917 17.2247 27.5917C18.1888 29.1792 19.7553 28.7208 20.3685 28.4552C20.4671 27.7833 20.7487 27.325 21.0564 27.0656C18.6579 26.8042 16.1359 25.9125 16.1359 21.9302C16.1359 20.7979 16.5573 19.8688 17.2452 19.1438C17.1358 18.8802 16.7621 17.8229 17.3525 16.3938C17.3525 16.3938 18.2592 16.1136 20.323 17.4573C21.2044 17.2268 22.1136 17.1091 23.027 17.1073C23.9404 17.1087 24.8497 17.2264 25.731 17.4573C27.7958 16.1125 28.7015 16.3938 28.7015 16.3938C29.2919 17.8229 28.9214 18.8802 28.8087 19.1438C29.5021 19.8688 29.9181 20.7969 29.9181 21.9302C29.9181 25.9229 27.3939 26.8 24.9867 27.0573C25.3713 27.3781 25.718 28.0115 25.718 28.9802C25.718 30.3698 25.705 31.4906 25.705 31.8313C25.705 32.1094 25.8978 32.4323 26.4492 32.3302C30.7414 30.9531 33.8332 27.0615 33.8332 22.4729C33.8332 16.7344 28.9961 12.0833 23.0281 12.0833Z" fill="white"/>
</g>
<path fill-rule="evenodd" clip-rule="evenodd" d="M23.0281 13.0833C17.06 13.0833 12.2229 17.7344 12.2229 23.4729C12.2229 28.0625 15.318 31.9573 19.6123 33.3323C20.1529 33.4261 20.3479 33.1063 20.3479 32.8313C20.3479 32.5844 20.3392 31.9302 20.336 31.0646C17.3297 31.6917 16.6949 29.6708 16.6949 29.6708C16.2052 28.4708 15.4957 28.1511 15.4957 28.1511C14.5152 27.5063 15.5704 27.5208 15.5704 27.5208C16.6559 27.5938 17.2247 28.5917 17.2247 28.5917C18.1888 30.1792 19.7553 29.7208 20.3685 29.4552C20.4671 28.7833 20.7487 28.325 21.0564 28.0656C18.6579 27.8042 16.1359 26.9125 16.1359 22.9302C16.1359 21.7979 16.5573 20.8688 17.2452 20.1438C17.1358 19.8802 16.7621 18.8229 17.3525 17.3938C17.3525 17.3938 18.2592 17.1136 20.323 18.4573C21.2044 18.2268 22.1136 18.1091 23.027 18.1073C23.9404 18.1087 24.8497 18.2264 25.731 18.4573C27.7958 17.1125 28.7015 17.3938 28.7015 17.3938C29.2919 18.8229 28.9214 19.8802 28.8087 20.1438C29.5021 20.8688 29.9181 21.7969 29.9181 22.9302C29.9181 26.9229 27.3939 27.8 24.9867 28.0573C25.3713 28.3781 25.718 29.0115 25.718 29.9802C25.718 31.3698 25.705 32.4906 25.705 32.8313C25.705 33.1094 25.8978 33.4323 26.4492 33.3302C30.7414 31.9531 33.8332 28.0615 33.8332 23.4729C33.8332 17.7344 28.9961 13.0833 23.0281 13.0833Z" fill="white"/>
<g filter="url(#filter1_d_128_100)">
<path d="M124.158 32V31.484H124.658V29.1072H124.158V28.5944H125.209L125.342 29.3845C125.468 29.0986 125.625 28.8814 125.812 28.7331C126.002 28.5826 126.245 28.5073 126.541 28.5073C126.642 28.5073 126.733 28.5159 126.812 28.5331C126.894 28.5482 126.974 28.5686 127.054 28.5944L126.838 29.2136C126.769 29.1942 126.705 29.1803 126.644 29.1717C126.584 29.1609 126.518 29.1555 126.444 29.1555C126.197 29.1555 125.983 29.248 125.803 29.4329C125.624 29.6178 125.483 29.8801 125.38 30.2198V31.484H126.067V32H124.158ZM126.415 29.8489V29.0104L126.506 28.5944H127.054L126.931 29.8489H126.415Z" fill="white"/>
</g>
<g filter="url(#filter2_d_128_100)">
<path d="M119.504 30.5294C119.519 30.7616 119.568 30.9519 119.652 31.1002C119.736 31.2464 119.845 31.3539 119.981 31.4227C120.118 31.4915 120.269 31.5259 120.432 31.5259C120.6 31.5259 120.755 31.5001 120.897 31.4485C121.039 31.3969 121.182 31.3238 121.326 31.2292L121.639 31.6614C121.479 31.7904 121.293 31.8936 121.081 31.971C120.868 32.0484 120.64 32.0871 120.397 32.0871C120.044 32.0871 119.745 32.0118 119.5 31.8613C119.257 31.7108 119.072 31.5012 118.946 31.2325C118.819 30.9637 118.755 30.653 118.755 30.3004C118.755 29.9586 118.818 29.6533 118.942 29.3845C119.067 29.1136 119.246 28.8997 119.478 28.7428C119.71 28.5837 119.987 28.5041 120.31 28.5041C120.613 28.5041 120.873 28.5729 121.09 28.7105C121.31 28.8481 121.478 29.0438 121.597 29.2975C121.717 29.549 121.777 29.8522 121.777 30.2069C121.777 30.265 121.775 30.323 121.771 30.3811C121.769 30.437 121.765 30.4864 121.761 30.5294H119.504ZM120.316 29.0395C120.091 29.0395 119.903 29.1201 119.755 29.2813C119.609 29.4426 119.524 29.6941 119.5 30.036H121.077C121.071 29.7156 121.002 29.4695 120.871 29.2975C120.742 29.1255 120.557 29.0395 120.316 29.0395Z" fill="white"/>
</g>
<g filter="url(#filter3_d_128_100)">
<path d="M113.682 32V28.5944H114.304L114.359 29.0362C114.501 28.8621 114.669 28.7299 114.862 28.6396C115.056 28.5493 115.255 28.5041 115.459 28.5041C115.777 28.5041 116.015 28.5933 116.172 28.7718C116.331 28.9481 116.41 29.1964 116.41 29.5168V32H115.688V29.8747C115.688 29.6769 115.676 29.5178 115.652 29.3974C115.629 29.277 115.581 29.19 115.51 29.1362C115.442 29.0825 115.338 29.0556 115.201 29.0556C115.091 29.0556 114.987 29.0792 114.888 29.1265C114.789 29.1738 114.699 29.2362 114.617 29.3136C114.535 29.3888 114.464 29.4695 114.404 29.5555V32H113.682Z" fill="white"/>
</g>
<g filter="url(#filter4_d_128_100)">
<path d="M111.327 28.1622L111.52 28.7621C111.385 28.8072 111.235 28.8373 111.072 28.8524C110.911 28.8674 110.73 28.875 110.53 28.875C110.734 28.9653 110.888 29.0814 110.991 29.2233C111.095 29.363 111.146 29.535 111.146 29.7393C111.146 29.9607 111.092 30.1585 110.985 30.3327C110.877 30.5068 110.724 30.6433 110.524 30.7422C110.324 30.8411 110.084 30.8906 109.805 30.8906C109.706 30.8906 109.62 30.8863 109.547 30.8777C109.476 30.8691 109.406 30.8551 109.337 30.8358C109.294 30.8659 109.257 30.9067 109.227 30.9583C109.199 31.0078 109.185 31.0604 109.185 31.1163C109.185 31.1851 109.213 31.2453 109.269 31.2969C109.327 31.3464 109.441 31.3711 109.611 31.3711H110.205C110.447 31.3711 110.661 31.413 110.846 31.4969C111.033 31.5786 111.18 31.6915 111.285 31.8355C111.392 31.9774 111.446 32.1387 111.446 32.3193C111.446 32.659 111.3 32.9223 111.008 33.1094C110.715 33.2964 110.294 33.39 109.743 33.39C109.354 33.39 109.049 33.3502 108.827 33.2706C108.606 33.1911 108.45 33.0728 108.36 32.9159C108.27 32.7589 108.224 32.5665 108.224 32.3386H108.873C108.873 32.4569 108.895 32.5547 108.94 32.6321C108.988 32.7095 109.075 32.7675 109.202 32.8062C109.328 32.8449 109.511 32.8643 109.75 32.8643C109.988 32.8643 110.178 32.8439 110.317 32.803C110.459 32.7643 110.561 32.7073 110.624 32.6321C110.688 32.559 110.721 32.4708 110.721 32.3676C110.721 32.23 110.66 32.1236 110.54 32.0484C110.42 31.9731 110.258 31.9355 110.056 31.9355H109.472C109.15 31.9355 108.913 31.8699 108.763 31.7388C108.615 31.6076 108.54 31.455 108.54 31.2808C108.54 31.1647 108.573 31.0529 108.637 30.9454C108.704 30.8379 108.798 30.7444 108.921 30.6648C108.717 30.5573 108.567 30.4273 108.473 30.2746C108.38 30.1198 108.334 29.9328 108.334 29.7135C108.334 29.4727 108.394 29.262 108.515 29.0814C108.635 28.9008 108.802 28.7599 109.014 28.6589C109.229 28.5578 109.477 28.5073 109.756 28.5073C110.029 28.5073 110.257 28.4933 110.44 28.4654C110.623 28.4353 110.782 28.3934 110.917 28.3396C111.055 28.2859 111.191 28.2267 111.327 28.1622ZM109.763 29.004C109.533 29.004 109.36 29.0695 109.243 29.2007C109.127 29.3297 109.069 29.4985 109.069 29.707C109.069 29.922 109.128 30.0951 109.247 30.2262C109.367 30.3552 109.542 30.4197 109.772 30.4197C109.985 30.4197 110.148 30.3574 110.259 30.2327C110.373 30.108 110.43 29.9306 110.43 29.7006C110.43 29.4684 110.374 29.2942 110.263 29.1781C110.151 29.062 109.984 29.004 109.763 29.004Z" fill="white"/>
</g>
<g filter="url(#filter5_d_128_100)">
<path d="M105.099 28.5944V31.4711H106.024V32H103.357V31.4711H104.376V29.1233H103.389V28.5944H105.099ZM104.596 26.9271C104.737 26.9271 104.851 26.9701 104.937 27.0561C105.026 27.1421 105.07 27.2496 105.07 27.3786C105.07 27.5076 105.026 27.6162 104.937 27.7043C104.851 27.7925 104.737 27.8365 104.596 27.8365C104.458 27.8365 104.345 27.7925 104.257 27.7043C104.169 27.6162 104.125 27.5076 104.125 27.3786C104.125 27.2496 104.169 27.1421 104.257 27.0561C104.345 26.9701 104.458 26.9271 104.596 26.9271Z" fill="white"/>
</g>
<g filter="url(#filter6_d_128_100)">
<path d="M99.2541 31.5324C99.4799 31.5324 99.6594 31.4926 99.7927 31.4131C99.926 31.3314 99.9927 31.2196 99.9927 31.0777C99.9927 30.9852 99.9733 30.9067 99.9346 30.8422C99.8959 30.7756 99.8185 30.7154 99.7024 30.6616C99.5863 30.6057 99.41 30.5477 99.1735 30.4875C98.9499 30.4294 98.7532 30.3606 98.5833 30.2811C98.4156 30.2015 98.2856 30.0983 98.1931 29.9715C98.1007 29.8446 98.0544 29.6812 98.0544 29.4813C98.0544 29.2856 98.1093 29.1147 98.2189 28.9685C98.3286 28.8223 98.4855 28.7084 98.6898 28.6267C98.8962 28.545 99.138 28.5041 99.4154 28.5041C99.7013 28.5041 99.9507 28.5417 100.164 28.617C100.376 28.6922 100.558 28.7858 100.709 28.8976L100.405 29.3523C100.272 29.2641 100.126 29.1921 99.9669 29.1362C99.8099 29.0803 99.6325 29.0524 99.4347 29.0524C99.2047 29.0524 99.0391 29.0868 98.9381 29.1556C98.8392 29.2244 98.7897 29.3157 98.7897 29.4297C98.7897 29.5135 98.8145 29.5845 98.8639 29.6425C98.9155 29.6984 99.0037 29.7511 99.1284 29.8006C99.2531 29.8479 99.4294 29.9038 99.6573 29.9683C99.8787 30.0285 100.071 30.0994 100.235 30.1811C100.4 30.2628 100.528 30.3714 100.618 30.5068C100.711 30.6401 100.757 30.8143 100.757 31.0293C100.757 31.2744 100.686 31.4754 100.544 31.6324C100.404 31.7872 100.219 31.9022 99.9894 31.9774C99.7615 32.0505 99.5164 32.0871 99.2541 32.0871C98.9381 32.0871 98.665 32.0419 98.435 31.9516C98.2049 31.8592 98.0114 31.7442 97.8545 31.6066L98.2383 31.168C98.3716 31.2755 98.5242 31.3636 98.6962 31.4324C98.8682 31.4991 99.0542 31.5324 99.2541 31.5324Z" fill="white"/>
</g>
<g filter="url(#filter7_d_128_100)">
<path d="M93.3937 30.5294C93.4088 30.7616 93.4582 30.9519 93.5421 31.1002C93.6259 31.2464 93.7356 31.3539 93.871 31.4227C94.0086 31.4915 94.1591 31.5259 94.3225 31.5259C94.4902 31.5259 94.645 31.5001 94.7869 31.4485C94.9288 31.3969 95.0718 31.3238 95.2158 31.2292L95.5287 31.6614C95.3696 31.7904 95.1836 31.8936 94.9707 31.971C94.7579 32.0484 94.53 32.0871 94.287 32.0871C93.9344 32.0871 93.6356 32.0118 93.3905 31.8613C93.1475 31.7108 92.9626 31.5012 92.8358 31.2325C92.7089 30.9637 92.6455 30.653 92.6455 30.3004C92.6455 29.9586 92.7079 29.6533 92.8326 29.3845C92.9573 29.1136 93.1357 28.8997 93.3679 28.7428C93.6001 28.5837 93.8775 28.5041 94.2 28.5041C94.5031 28.5041 94.7633 28.5729 94.9804 28.7105C95.1997 28.8481 95.3685 29.0438 95.4867 29.2975C95.6071 29.549 95.6673 29.8522 95.6673 30.2069C95.6673 30.265 95.6652 30.323 95.6609 30.3811C95.6587 30.437 95.6555 30.4864 95.6512 30.5294H93.3937ZM94.2064 29.0395C93.9807 29.0395 93.7936 29.1201 93.6453 29.2813C93.4991 29.4426 93.4141 29.6941 93.3905 30.036H94.9675C94.9611 29.7156 94.8923 29.4695 94.7611 29.2975C94.6321 29.1255 94.4472 29.0395 94.2064 29.0395Z" fill="white"/>
</g>
<g filter="url(#filter8_d_128_100)">
<path d="M89.8294 29.7522C89.8294 29.3974 89.7939 29.1125 89.7229 28.8975C89.6541 28.6825 89.5606 28.5191 89.4424 28.4073C89.3263 28.2955 89.1962 28.2203 89.0521 28.1816C88.9102 28.1429 88.7651 28.1236 88.6168 28.1236H88.2072V31.4324H88.62C88.7748 31.4324 88.9242 31.4077 89.0683 31.3582C89.2123 31.3088 89.3413 31.2228 89.4553 31.1002C89.5714 30.9777 89.6627 30.8078 89.7294 30.5907C89.796 30.3714 89.8294 30.0919 89.8294 29.7522ZM90.6163 29.7522C90.6163 30.1198 90.5765 30.4337 90.4969 30.6939C90.4195 30.954 90.312 31.1701 90.1744 31.3421C90.039 31.512 89.882 31.6453 89.7036 31.742C89.5273 31.8366 89.3402 31.9032 89.1424 31.9419C88.9446 31.9806 88.7468 32 88.549 32H87.459V27.5495H88.4749C88.7458 27.5495 89.0081 27.5785 89.2618 27.6366C89.5176 27.6946 89.7466 27.8021 89.9487 27.9591C90.1529 28.116 90.3153 28.3385 90.4357 28.6266C90.5561 28.9147 90.6163 29.2899 90.6163 29.7522Z" fill="white"/>
</g>
<g filter="url(#filter9_d_128_100)">
<path d="M79.1275 27.1464L79.8499 27.227V32H79.2146L79.163 31.5808C79.0469 31.742 78.9082 31.8667 78.7469 31.9549C78.5857 32.043 78.4051 32.0871 78.2051 32.0871C77.9127 32.0871 77.6719 32.0129 77.4827 31.8646C77.2935 31.7141 77.1527 31.5044 77.0603 31.2357C76.97 30.9648 76.9248 30.652 76.9248 30.2972C76.9248 29.9511 76.9786 29.6436 77.0861 29.3749C77.1936 29.104 77.3473 28.8911 77.5472 28.7363C77.7472 28.5815 77.988 28.5041 78.2696 28.5041C78.4481 28.5041 78.6083 28.5364 78.7502 28.6009C78.8921 28.6632 79.0178 28.7546 79.1275 28.875V27.1464ZM78.4599 29.0588C78.217 29.0588 78.0278 29.1599 77.8923 29.362C77.7569 29.5619 77.6891 29.8737 77.6891 30.2972C77.6891 30.5875 77.7171 30.824 77.773 31.0067C77.8289 31.1873 77.9095 31.3206 78.0149 31.4066C78.1202 31.4905 78.2471 31.5324 78.3954 31.5324C78.5588 31.5324 78.7007 31.4851 78.8211 31.3905C78.9415 31.2959 79.0436 31.1819 79.1275 31.0486V29.4361C79.0436 29.3157 78.9458 29.2233 78.834 29.1588C78.7222 29.0921 78.5975 29.0588 78.4599 29.0588Z" fill="white"/>
</g>
<g filter="url(#filter10_d_128_100)">
<path d="M71.906 32V28.5944H72.5284L72.5833 29.0362C72.7252 28.8621 72.8929 28.7299 73.0864 28.6396C73.2799 28.5493 73.4787 28.5041 73.683 28.5041C74.0012 28.5041 74.2388 28.5933 74.3957 28.7718C74.5548 28.9481 74.6344 29.1964 74.6344 29.5168V32H73.912V29.8747C73.912 29.6769 73.9001 29.5178 73.8765 29.3974C73.8528 29.277 73.8055 29.19 73.7346 29.1362C73.6658 29.0825 73.5626 29.0556 73.425 29.0556C73.3153 29.0556 73.2111 29.0792 73.1122 29.1265C73.0133 29.1738 72.923 29.2362 72.8413 29.3136C72.7596 29.3888 72.6886 29.4695 72.6284 29.5555V32H71.906Z" fill="white"/>
</g>
<g filter="url(#filter11_d_128_100)">
<path d="M67.2838 30.5294C67.2989 30.7616 67.3483 30.9519 67.4322 31.1002C67.516 31.2464 67.6257 31.3539 67.7611 31.4227C67.8987 31.4915 68.0492 31.5259 68.2126 31.5259C68.3803 31.5259 68.5351 31.5001 68.677 31.4485C68.8189 31.3969 68.9619 31.3238 69.106 31.2292L69.4188 31.6614C69.2597 31.7904 69.0737 31.8936 68.8609 31.971C68.648 32.0484 68.4201 32.0871 68.1772 32.0871C67.8246 32.0871 67.5257 32.0118 67.2806 31.8613C67.0377 31.7108 66.8528 31.5012 66.7259 31.2325C66.5991 30.9637 66.5356 30.653 66.5356 30.3004C66.5356 29.9586 66.598 29.6533 66.7227 29.3845C66.8474 29.1136 67.0258 28.8997 67.258 28.7428C67.4902 28.5837 67.7676 28.5041 68.0901 28.5041C68.3932 28.5041 68.6534 28.5729 68.8705 28.7105C69.0898 28.8481 69.2586 29.0438 69.3769 29.2975C69.4973 29.549 69.5575 29.8522 69.5575 30.2069C69.5575 30.265 69.5553 30.323 69.551 30.3811C69.5489 30.437 69.5456 30.4864 69.5413 30.5294H67.2838ZM68.0965 29.0395C67.8708 29.0395 67.6837 29.1201 67.5354 29.2813C67.3892 29.4426 67.3043 29.6941 67.2806 30.036H68.8576C68.8512 29.7156 68.7824 29.4695 68.6512 29.2975C68.5222 29.1255 68.3373 29.0395 68.0965 29.0395Z" fill="white"/>
</g>
<g filter="url(#filter12_d_128_100)">
<path d="M64.3065 31.8194C64.1818 31.899 64.0324 31.9635 63.8582 32.0129C63.6841 32.0624 63.5024 32.0871 63.3132 32.0871C62.9176 32.0871 62.6166 31.985 62.4102 31.7807C62.2059 31.5743 62.1038 31.3034 62.1038 30.968V29.1201H61.3459V28.5944H62.1038V27.8333L62.8262 27.7462V28.5944H63.9743L63.8937 29.1201H62.8262V30.9616C62.8262 31.1443 62.8714 31.2808 62.9617 31.3711C63.0541 31.4593 63.2046 31.5034 63.4132 31.5034C63.5379 31.5034 63.6529 31.4883 63.7582 31.4582C63.8636 31.4281 63.9593 31.3894 64.0453 31.3421L64.3065 31.8194Z" fill="white"/>
</g>
<g filter="url(#filter13_d_128_100)">
<path d="M56.24 32V28.5944H56.8624L56.9172 29.0362C57.0591 28.8621 57.2268 28.7299 57.4203 28.6396C57.6138 28.5493 57.8127 28.5041 58.017 28.5041C58.3352 28.5041 58.5727 28.5933 58.7297 28.7718C58.8888 28.9481 58.9683 29.1964 58.9683 29.5168V32H58.2459V29.8747C58.2459 29.6769 58.2341 29.5178 58.2105 29.3974C58.1868 29.277 58.1395 29.19 58.0686 29.1362C57.9998 29.0825 57.8966 29.0556 57.759 29.0556C57.6493 29.0556 57.545 29.0792 57.4461 29.1265C57.3472 29.1738 57.2569 29.2362 57.1752 29.3136C57.0935 29.3888 57.0226 29.4695 56.9624 29.5555V32H56.24Z" fill="white"/>
</g>
<g filter="url(#filter14_d_128_100)">
<path d="M52.3821 28.5041C52.7154 28.5041 52.996 28.5783 53.2239 28.7266C53.4518 28.875 53.6238 29.0825 53.7399 29.3491C53.8581 29.6157 53.9172 29.9296 53.9172 30.2908C53.9172 30.6498 53.857 30.9648 53.7366 31.2357C53.6184 31.5044 53.4442 31.7141 53.2142 31.8646C52.9863 32.0129 52.7079 32.0871 52.3789 32.0871C52.05 32.0871 51.7705 32.0151 51.5404 31.871C51.3125 31.7248 51.1384 31.5173 51.018 31.2486C50.8997 30.9798 50.8406 30.6627 50.8406 30.2972C50.8406 29.9425 50.8997 29.6307 51.018 29.362C51.1384 29.0932 51.3136 28.8836 51.5436 28.7331C51.7737 28.5804 52.0532 28.5041 52.3821 28.5041ZM52.3821 29.0653C52.122 29.0653 51.9263 29.1652 51.7952 29.3652C51.664 29.563 51.5985 29.8737 51.5985 30.2972C51.5985 30.7186 51.663 31.0293 51.792 31.2292C51.9231 31.4292 52.1188 31.5292 52.3789 31.5292C52.6391 31.5292 52.8336 31.4292 52.9626 31.2292C53.0938 31.0293 53.1594 30.7165 53.1594 30.2908C53.1594 29.8715 53.0949 29.563 52.9659 29.3652C52.8369 29.1652 52.6423 29.0653 52.3821 29.0653Z" fill="white"/>
</g>
<g filter="url(#filter15_d_128_100)">
<path d="M45.8284 32V31.484H46.3282V29.1072H45.8284V28.5944H46.8797L47.0119 29.3845C47.1388 29.0986 47.2957 28.8814 47.4828 28.7331C47.672 28.5826 47.9149 28.5073 48.2116 28.5073C48.3127 28.5073 48.403 28.5159 48.4825 28.5331C48.5642 28.5482 48.6449 28.5686 48.7244 28.5944L48.5083 29.2136C48.4395 29.1942 48.375 29.1803 48.3148 29.1717C48.2546 29.1609 48.188 29.1555 48.1149 29.1555C47.8676 29.1555 47.6537 29.248 47.4731 29.4329C47.2947 29.6178 47.1538 29.8801 47.0506 30.2198V31.484H47.7376V32H45.8284ZM48.0859 29.8489V29.0104L48.1762 28.5944H48.7244L48.6019 29.8489H48.0859Z" fill="white"/>
</g>
<g filter="url(#filter16_d_128_100)">
<path d="M41.5673 28.1171V29.5329H43.2411V30.1005H41.5673V32H40.8191V27.5495H43.5571L43.4733 28.1171H41.5673Z" fill="white"/>
</g>
<g filter="url(#filter17_d_128_100)">
<path d="M125.542 18.0104V22.2251H126.898V23H122.99V22.2251H124.483V18.7853H123.037V18.0104H125.542ZM124.805 15.5676C125.013 15.5676 125.179 15.6306 125.305 15.7566C125.435 15.8826 125.499 16.0401 125.499 16.2291C125.499 16.4181 125.435 16.5771 125.305 16.7063C125.179 16.8354 125.013 16.9 124.805 16.9C124.603 16.9 124.438 16.8354 124.309 16.7063C124.179 16.5771 124.115 16.4181 124.115 16.2291C124.115 16.0401 124.179 15.8826 124.309 15.7566C124.438 15.6306 124.603 15.5676 124.805 15.5676Z" fill="white"/>
</g>
<g filter="url(#filter18_d_128_100)">
<path d="M121.128 22.7354C120.945 22.852 120.726 22.9465 120.471 23.0189C120.216 23.0914 119.949 23.1276 119.672 23.1276C119.093 23.1276 118.652 22.978 118.349 22.6787C118.05 22.3763 117.9 21.9794 117.9 21.488V18.7806H116.79V18.0104H117.9V16.8953L118.959 16.7677V18.0104H120.641L120.523 18.7806H118.959V21.4786C118.959 21.7463 119.025 21.9463 119.157 22.0786C119.293 22.2078 119.513 22.2724 119.819 22.2724C120.001 22.2724 120.17 22.2503 120.324 22.2062C120.479 22.1621 120.619 22.1054 120.745 22.0361L121.128 22.7354Z" fill="white"/>
</g>
<g filter="url(#filter19_d_128_100)">
<path d="M111.152 23V22.244H111.884V18.7617H111.152V18.0104H112.692L112.886 19.168C113.072 18.7491 113.302 18.4309 113.576 18.2136C113.853 17.9931 114.209 17.8828 114.644 17.8828C114.792 17.8828 114.924 17.8954 115.041 17.9206C115.16 17.9427 115.279 17.9726 115.395 18.0104L115.079 18.9176C114.978 18.8892 114.883 18.8688 114.795 18.8562C114.707 18.8404 114.609 18.8325 114.502 18.8325C114.14 18.8325 113.826 18.968 113.562 19.2389C113.3 19.5098 113.094 19.8941 112.943 20.3918V22.244H113.949V23H111.152ZM114.46 19.8484V18.6199L114.592 18.0104H115.395L115.216 19.8484H114.46Z" fill="white"/>
</g>
<g filter="url(#filter20_d_128_100)">
<path d="M109.062 21.7762C109.062 21.9715 109.092 22.1149 109.152 22.2062C109.212 22.2944 109.308 22.3606 109.44 22.4047L109.204 23.1229C108.958 23.0945 108.747 23.0268 108.571 22.9197C108.395 22.8126 108.261 22.6504 108.169 22.433C107.987 22.663 107.755 22.8362 107.475 22.9528C107.194 23.0693 106.895 23.1276 106.577 23.1276C106.073 23.1276 105.673 22.9858 105.377 22.7023C105.084 22.4157 104.938 22.0408 104.938 21.5778C104.938 21.0517 105.142 20.647 105.552 20.3635C105.961 20.08 106.547 19.9382 107.309 19.9382H108.023V19.6122C108.023 19.2909 107.925 19.0594 107.73 18.9176C107.538 18.7759 107.265 18.705 106.913 18.705C106.749 18.705 106.55 18.727 106.317 18.7711C106.084 18.8121 105.84 18.8767 105.585 18.9649L105.325 18.2183C105.637 18.1018 105.942 18.0167 106.242 17.9632C106.541 17.9065 106.818 17.8781 107.073 17.8781C107.741 17.8781 108.239 18.0262 108.566 18.3223C108.897 18.6184 109.062 19.0279 109.062 19.5508V21.7762ZM106.898 22.348C107.113 22.348 107.322 22.2913 107.527 22.1779C107.732 22.0645 107.897 21.9054 108.023 21.7006V20.5997H107.437C106.939 20.5997 106.583 20.6832 106.369 20.8501C106.155 21.0139 106.048 21.2407 106.048 21.5305C106.048 21.7951 106.119 21.9983 106.261 22.1401C106.405 22.2787 106.618 22.348 106.898 22.348Z" fill="white"/>
</g>
<g filter="url(#filter21_d_128_100)">
<path d="M100.452 15.903V18.6199C100.654 18.3742 100.89 18.1899 101.161 18.0671C101.432 17.9411 101.711 17.8781 101.998 17.8781C102.467 17.8781 102.817 18.0088 103.046 18.2703C103.276 18.5286 103.391 18.8924 103.391 19.3617V23H102.333V19.5271C102.333 19.2279 102.276 19.0137 102.163 18.8845C102.049 18.7522 101.867 18.6861 101.615 18.6861C101.457 18.6861 101.306 18.7223 101.161 18.7947C101.019 18.864 100.887 18.9554 100.764 19.0688C100.645 19.1822 100.541 19.3035 100.452 19.4326V23H99.394V16.0164L100.452 15.903Z" fill="white"/>
</g>
<g filter="url(#filter22_d_128_100)">
<path d="M96.7659 21.1147C96.7659 20.8218 96.7092 20.595 96.5958 20.4343C96.4824 20.2737 96.3296 20.1618 96.1375 20.0988C95.9453 20.0327 95.7296 19.9996 95.4902 19.9996H94.5593V22.1495H95.4429C95.6004 22.1495 95.7563 22.1369 95.9107 22.1117C96.0682 22.0833 96.2115 22.0329 96.3407 21.9605C96.4698 21.8849 96.5722 21.7794 96.6478 21.6439C96.7265 21.5085 96.7659 21.3321 96.7659 21.1147ZM96.5155 18.2183C96.5155 17.8907 96.4131 17.656 96.2084 17.5143C96.0036 17.3725 95.7154 17.3016 95.3437 17.3016H94.5593V19.1869H95.4098C95.7752 19.1869 96.0509 19.1113 96.2367 18.9601C96.4226 18.8058 96.5155 18.5585 96.5155 18.2183ZM97.9094 21.1194C97.9094 21.4817 97.8385 21.7857 97.6967 22.0314C97.555 22.2739 97.3628 22.4661 97.1203 22.6078C96.8809 22.7496 96.61 22.8504 96.3076 22.9102C96.0052 22.9701 95.6933 23 95.372 23H93.4631V16.4795H95.2445C95.55 16.4795 95.8445 16.5063 96.128 16.5598C96.4115 16.6102 96.6651 16.6984 96.8888 16.8244C97.1156 16.9504 97.2951 17.1205 97.4274 17.3347C97.5597 17.5458 97.6259 17.8104 97.6259 18.1285C97.6259 18.4026 97.5692 18.6357 97.4558 18.8278C97.3424 19.02 97.1927 19.1759 97.0069 19.2956C96.8242 19.4121 96.6289 19.4956 96.421 19.546C96.6572 19.5838 96.8888 19.6578 97.1156 19.7681C97.3455 19.8752 97.5345 20.0374 97.6826 20.2548C97.8338 20.4721 97.9094 20.7603 97.9094 21.1194Z" fill="white"/>
</g>
<g filter="url(#filter23_d_128_100)">
<path d="M86.2225 18.0104L84.2049 20.2406L86.4351 23H85.1405L82.9953 20.269L84.9893 18.0104H86.2225ZM82.9197 15.8889V23H81.8613V16.007L82.9197 15.8889Z" fill="white"/>
</g>
<g filter="url(#filter24_d_128_100)">
<path d="M75.9729 23V18.0104H76.8848L76.9652 18.6577C77.1731 18.4026 77.4188 18.2089 77.7023 18.0766C77.9858 17.9443 78.2771 17.8781 78.5764 17.8781C79.0426 17.8781 79.3907 18.0088 79.6206 18.2703C79.8537 18.5286 79.9703 18.8924 79.9703 19.3618V23H78.9118V19.8862C78.9118 19.5964 78.8945 19.3633 78.8599 19.1869C78.8252 19.0105 78.7559 18.883 78.652 18.8042C78.5512 18.7255 78.4 18.6861 78.1984 18.6861C78.0377 18.6861 77.885 18.7207 77.7401 18.79C77.5952 18.8593 77.4629 18.9507 77.3432 19.0641C77.2235 19.1743 77.1195 19.2925 77.0313 19.4185V23H75.9729Z" fill="white"/>
</g>
<g filter="url(#filter25_d_128_100)">
<path d="M73.9306 21.7762C73.9306 21.9715 73.9605 22.1149 74.0204 22.2062C74.0802 22.2944 74.1763 22.3606 74.3086 22.4047L74.0723 23.1229C73.8266 23.0945 73.6156 23.0268 73.4392 22.9197C73.2628 22.8126 73.1289 22.6504 73.0376 22.433C72.8549 22.663 72.6233 22.8362 72.343 22.9528C72.0626 23.0693 71.7634 23.1276 71.4452 23.1276C70.9412 23.1276 70.5412 22.9858 70.2451 22.7023C69.9521 22.4157 69.8057 22.0408 69.8057 21.5778C69.8057 21.0517 70.0104 20.647 70.4199 20.3635C70.8294 20.08 71.4153 19.9382 72.1776 19.9382H72.8911V19.6122C72.8911 19.2909 72.7934 19.0594 72.5981 18.9176C72.406 18.7759 72.1335 18.705 71.7807 18.705C71.6169 18.705 71.4185 18.727 71.1854 18.7711C70.9523 18.8121 70.7081 18.8767 70.453 18.9649L70.1931 18.2183C70.505 18.1018 70.8105 18.0167 71.1098 17.9632C71.409 17.9065 71.6862 17.8781 71.9414 17.8781C72.6092 17.8781 73.1069 18.0262 73.4345 18.3223C73.7652 18.6184 73.9306 19.0279 73.9306 19.5508V21.7762ZM71.7665 22.348C71.9807 22.348 72.1902 22.2913 72.395 22.1779C72.5997 22.0645 72.7651 21.9054 72.8911 21.7006V20.5997H72.3052C71.8075 20.5997 71.4515 20.6832 71.2373 20.8501C71.0231 21.0139 70.916 21.2407 70.916 21.5305C70.916 21.7951 70.9869 21.9983 71.1287 22.1401C71.2736 22.2787 71.4862 22.348 71.7665 22.348Z" fill="white"/>
</g>
<g filter="url(#filter26_d_128_100)">
<path d="M65.3206 15.903V18.6199C65.5222 18.3742 65.7585 18.1899 66.0294 18.0671C66.3003 17.9411 66.579 17.8781 66.8657 17.8781C67.335 17.8781 67.6847 18.0088 67.9146 18.2703C68.1446 18.5286 68.2596 18.8924 68.2596 19.3617V23H67.2012V19.5271C67.2012 19.2279 67.1445 19.0137 67.0311 18.8845C66.9177 18.7522 66.735 18.6861 66.483 18.6861C66.3255 18.6861 66.1743 18.7223 66.0294 18.7947C65.8876 18.864 65.7553 18.9554 65.6325 19.0688C65.5128 19.1822 65.4088 19.3035 65.3206 19.4326V23H64.2622V16.0164L65.3206 15.903Z" fill="white"/>
</g>
<g filter="url(#filter27_d_128_100)">
<path d="M60.2213 22.3149C60.5521 22.3149 60.8151 22.2566 61.0104 22.1401C61.2057 22.0204 61.3033 21.8566 61.3033 21.6487C61.3033 21.5132 61.275 21.3982 61.2183 21.3037C61.1616 21.2061 61.0482 21.1179 60.8781 21.0391C60.708 20.9572 60.4497 20.8722 60.1032 20.784C59.7756 20.6989 59.4874 20.5981 59.2385 20.4816C58.9928 20.365 58.8022 20.2138 58.6668 20.028C58.5313 19.8421 58.4636 19.6027 58.4636 19.3098C58.4636 19.0231 58.5439 18.7727 58.7046 18.5585C58.8652 18.3443 59.0952 18.1774 59.3944 18.0577C59.6968 17.938 60.0512 17.8781 60.4576 17.8781C60.8765 17.8781 61.2419 17.9332 61.5538 18.0435C61.8656 18.1537 62.1318 18.2908 62.3523 18.4546L61.9081 19.1208C61.7128 18.9916 61.4986 18.8861 61.2655 18.8042C61.0356 18.7223 60.7757 18.6814 60.4859 18.6814C60.1489 18.6814 59.9063 18.7318 59.7583 18.8326C59.6134 18.9334 59.5409 19.0672 59.5409 19.2342C59.5409 19.357 59.5771 19.461 59.6496 19.546C59.7252 19.6279 59.8543 19.7051 60.037 19.7776C60.2197 19.8469 60.478 19.9288 60.8119 20.0233C61.1364 20.1115 61.4183 20.2154 61.6577 20.3351C61.9003 20.4548 62.0877 20.6139 62.22 20.8123C62.3554 21.0076 62.4232 21.2628 62.4232 21.5778C62.4232 21.9369 62.3192 22.2314 62.1113 22.4614C61.9066 22.6882 61.6357 22.8567 61.2986 22.9669C60.9647 23.074 60.6056 23.1276 60.2213 23.1276C59.7583 23.1276 59.3582 23.0614 59.0212 22.9291C58.6841 22.7937 58.4006 22.6252 58.1707 22.4236L58.7329 21.781C58.9282 21.9385 59.1519 22.0676 59.4039 22.1684C59.6559 22.2661 59.9284 22.3149 60.2213 22.3149Z" fill="white"/>
</g>
<g filter="url(#filter28_d_128_100)">
<path d="M56.3647 21.7762C56.3647 21.9715 56.3946 22.1149 56.4544 22.2062C56.5143 22.2944 56.6104 22.3606 56.7427 22.4047L56.5064 23.1229C56.2607 23.0945 56.0497 23.0268 55.8733 22.9197C55.6969 22.8126 55.563 22.6504 55.4716 22.433C55.2889 22.663 55.0574 22.8362 54.7771 22.9528C54.4967 23.0693 54.1975 23.1276 53.8793 23.1276C53.3753 23.1276 52.9753 22.9858 52.6792 22.7023C52.3862 22.4157 52.2397 22.0408 52.2397 21.5778C52.2397 21.0517 52.4445 20.647 52.854 20.3635C53.2635 20.08 53.8494 19.9382 54.6117 19.9382H55.3252V19.6122C55.3252 19.2909 55.2275 19.0594 55.0322 18.9176C54.8401 18.7759 54.5676 18.705 54.2148 18.705C54.051 18.705 53.8525 18.727 53.6194 18.7711C53.3863 18.8121 53.1422 18.8767 52.8871 18.9649L52.6272 18.2183C52.939 18.1018 53.2446 18.0167 53.5438 17.9632C53.8431 17.9065 54.1203 17.8781 54.3754 17.8781C55.0432 17.8781 55.5409 18.0262 55.8685 18.3223C56.1993 18.6184 56.3647 19.0279 56.3647 19.5508V21.7762ZM54.2006 22.348C54.4148 22.348 54.6243 22.2913 54.829 22.1779C55.0338 22.0645 55.1992 21.9054 55.3252 21.7006V20.5997H54.7393C54.2416 20.5997 53.8856 20.6832 53.6714 20.8501C53.4572 21.0139 53.3501 21.2407 53.3501 21.5305C53.3501 21.7951 53.421 21.9983 53.5627 22.1401C53.7076 22.2787 53.9203 22.348 54.2006 22.348Z" fill="white"/>
</g>
<g filter="url(#filter29_d_128_100)">
<path d="M47.7547 15.903V18.6199C47.9563 18.3742 48.1925 18.1899 48.4634 18.0671C48.7343 17.9411 49.0131 17.8781 49.2998 17.8781C49.7691 17.8781 50.1188 18.0088 50.3487 18.2703C50.5787 18.5286 50.6936 18.8924 50.6936 19.3617V23H49.6352V19.5271C49.6352 19.2279 49.5785 19.0137 49.4651 18.8845C49.3517 18.7522 49.169 18.6861 48.917 18.6861C48.7595 18.6861 48.6083 18.7223 48.4634 18.7947C48.3217 18.864 48.1894 18.9554 48.0665 19.0688C47.9468 19.1822 47.8429 19.3035 47.7547 19.4326V23H46.6963V16.0164L47.7547 15.903Z" fill="white"/>
</g>
<g filter="url(#filter30_d_128_100)">
<path d="M45.1833 21.1572C45.1833 21.5415 45.084 21.8833 44.8856 22.1826C44.6903 22.4787 44.4068 22.7102 44.0351 22.8771C43.6665 23.0441 43.2208 23.1276 42.6979 23.1276C42.1687 23.1276 41.7041 23.0488 41.304 22.8913C40.9071 22.7307 40.5717 22.518 40.2976 22.2534L40.8977 21.5825C41.1308 21.7935 41.3938 21.9605 41.6868 22.0833C41.9797 22.203 42.3152 22.2629 42.6932 22.2629C42.9389 22.2629 43.1641 22.2251 43.3689 22.1495C43.5736 22.0707 43.7374 21.9542 43.8603 21.7998C43.9831 21.6423 44.0445 21.4455 44.0445 21.2092C44.0445 21.0171 44.0052 20.8548 43.9264 20.7225C43.8477 20.5902 43.7106 20.4705 43.5153 20.3634C43.3232 20.2563 43.0539 20.1524 42.7074 20.0516C42.2475 19.913 41.8616 19.7586 41.5497 19.5885C41.2379 19.4184 41.0016 19.2153 40.841 18.979C40.6835 18.7396 40.6047 18.4498 40.6047 18.1096C40.6047 17.7568 40.7008 17.4481 40.893 17.1835C41.0883 16.9189 41.3544 16.7142 41.6915 16.5693C42.0317 16.4212 42.416 16.3472 42.8444 16.3472C43.3169 16.3472 43.7295 16.4149 44.0823 16.5504C44.4351 16.6858 44.7501 16.8795 45.0273 17.1315L44.4509 17.7836C44.2209 17.582 43.9737 17.4355 43.7091 17.3442C43.4476 17.2528 43.1814 17.2071 42.9105 17.2071C42.69 17.2071 42.49 17.2386 42.3105 17.3016C42.1309 17.3646 41.9892 17.4576 41.8852 17.5804C41.7813 17.7033 41.7293 17.8592 41.7293 18.0482C41.7293 18.2151 41.775 18.3585 41.8663 18.4782C41.9608 18.5979 42.1183 18.7097 42.3388 18.8136C42.5625 18.9144 42.868 19.0231 43.2555 19.1397C43.6209 19.2468 43.9485 19.3791 44.2383 19.5366C44.5312 19.6941 44.7612 19.9004 44.9281 20.1555C45.0982 20.4107 45.1833 20.7446 45.1833 21.1572Z" fill="white"/>
</g>
<defs>
<filter id="filter0_f_128_100" x="0.1" y="0.1" width="45.8" height="44.8" filterUnits="userSpaceOnUse" color-interpolation-filters="sRGB">
<feFlood flood-opacity="0" result="BackgroundImageFix"/>
<feBlend mode="normal" in="SourceGraphic" in2="BackgroundImageFix" result="shape"/>
<feGaussianBlur stdDeviation="4.95" result="effect1_foregroundBlur_128_100"/>
</filter>
<filter id="filter1_d_128_100" x="117.958" y="22.3073" width="15.296" height="15.8927" filterUnits="userSpaceOnUse" color-interpolation-filters="sRGB">
<feFlood flood-opacity="0" result="BackgroundImageFix"/>
<feColorMatrix in="SourceAlpha" type="matrix" values="0 0 0 0 0 0 0 0 0 0 0 0 0 0 0 0 0 0 127 0" result="hardAlpha"/>
<feOffset/>
<feGaussianBlur stdDeviation="3.1"/>
<feComposite in2="hardAlpha" operator="out"/>
<feColorMatrix type="matrix" values="0 0 0 0 1 0 0 0 0 1 0 0 0 0 1 0 0 0 0.59 0"/>
<feBlend mode="normal" in2="BackgroundImageFix" result="effect1_dropShadow_128_100"/>
<feBlend mode="normal" in="SourceGraphic" in2="effect1_dropShadow_128_100" result="shape"/>
</filter>
<filter id="filter2_d_128_100" x="112.555" y="22.3041" width="15.4217" height="15.983" filterUnits="userSpaceOnUse" color-interpolation-filters="sRGB">
<feFlood flood-opacity="0" result="BackgroundImageFix"/>
<feColorMatrix in="SourceAlpha" type="matrix" values="0 0 0 0 0 0 0 0 0 0 0 0 0 0 0 0 0 0 127 0" result="hardAlpha"/>
<feOffset/>
<feGaussianBlur stdDeviation="3.1"/>
<feComposite in2="hardAlpha" operator="out"/>
<feColorMatrix type="matrix" values="0 0 0 0 1 0 0 0 0 1 0 0 0 0 1 0 0 0 0.59 0"/>
<feBlend mode="normal" in2="BackgroundImageFix" result="effect1_dropShadow_128_100"/>
<feBlend mode="normal" in="SourceGraphic" in2="effect1_dropShadow_128_100" result="shape"/>
</filter>
<filter id="filter3_d_128_100" x="107.482" y="22.3041" width="15.1283" height="15.8959" filterUnits="userSpaceOnUse" color-interpolation-filters="sRGB">
<feFlood flood-opacity="0" result="BackgroundImageFix"/>
<feColorMatrix in="SourceAlpha" type="matrix" values="0 0 0 0 0 0 0 0 0 0 0 0 0 0 0 0 0 0 127 0" result="hardAlpha"/>
<feOffset/>
<feGaussianBlur stdDeviation="3.1"/>
<feComposite in2="hardAlpha" operator="out"/>
<feColorMatrix type="matrix" values="0 0 0 0 1 0 0 0 0 1 0 0 0 0 1 0 0 0 0.59 0"/>
<feBlend mode="normal" in2="BackgroundImageFix" result="effect1_dropShadow_128_100"/>
<feBlend mode="normal" in="SourceGraphic" in2="effect1_dropShadow_128_100" result="shape"/>
</filter>
<filter id="filter4_d_128_100" x="102.024" y="21.9622" width="15.6959" height="17.6277" filterUnits="userSpaceOnUse" color-interpolation-filters="sRGB">
<feFlood flood-opacity="0" result="BackgroundImageFix"/>
<feColorMatrix in="SourceAlpha" type="matrix" values="0 0 0 0 0 0 0 0 0 0 0 0 0 0 0 0 0 0 127 0" result="hardAlpha"/>
<feOffset/>
<feGaussianBlur stdDeviation="3.1"/>
<feComposite in2="hardAlpha" operator="out"/>
<feColorMatrix type="matrix" values="0 0 0 0 1 0 0 0 0 1 0 0 0 0 1 0 0 0 0.59 0"/>
<feBlend mode="normal" in2="BackgroundImageFix" result="effect1_dropShadow_128_100"/>
<feBlend mode="normal" in="SourceGraphic" in2="effect1_dropShadow_128_100" result="shape"/>
</filter>
<filter id="filter5_d_128_100" x="97.1572" y="20.7271" width="15.067" height="17.4729" filterUnits="userSpaceOnUse" color-interpolation-filters="sRGB">
<feFlood flood-opacity="0" result="BackgroundImageFix"/>
<feColorMatrix in="SourceAlpha" type="matrix" values="0 0 0 0 0 0 0 0 0 0 0 0 0 0 0 0 0 0 127 0" result="hardAlpha"/>
<feOffset/>
<feGaussianBlur stdDeviation="3.1"/>
<feComposite in2="hardAlpha" operator="out"/>
<feColorMatrix type="matrix" values="0 0 0 0 1 0 0 0 0 1 0 0 0 0 1 0 0 0 0.59 0"/>
<feBlend mode="normal" in2="BackgroundImageFix" result="effect1_dropShadow_128_100"/>
<feBlend mode="normal" in="SourceGraphic" in2="effect1_dropShadow_128_100" result="shape"/>
</filter>
<filter id="filter6_d_128_100" x="91.6545" y="22.3041" width="15.3026" height="15.983" filterUnits="userSpaceOnUse" color-interpolation-filters="sRGB">
<feFlood flood-opacity="0" result="BackgroundImageFix"/>
<feColorMatrix in="SourceAlpha" type="matrix" values="0 0 0 0 0 0 0 0 0 0 0 0 0 0 0 0 0 0 127 0" result="hardAlpha"/>
<feOffset/>
<feGaussianBlur stdDeviation="3.1"/>
<feComposite in2="hardAlpha" operator="out"/>
<feColorMatrix type="matrix" values="0 0 0 0 1 0 0 0 0 1 0 0 0 0 1 0 0 0 0.59 0"/>
<feBlend mode="normal" in2="BackgroundImageFix" result="effect1_dropShadow_128_100"/>
<feBlend mode="normal" in="SourceGraphic" in2="effect1_dropShadow_128_100" result="shape"/>
</filter>
<filter id="filter7_d_128_100" x="86.4455" y="22.3041" width="15.4217" height="15.983" filterUnits="userSpaceOnUse" color-interpolation-filters="sRGB">
<feFlood flood-opacity="0" result="BackgroundImageFix"/>
<feColorMatrix in="SourceAlpha" type="matrix" values="0 0 0 0 0 0 0 0 0 0 0 0 0 0 0 0 0 0 127 0" result="hardAlpha"/>
<feOffset/>
<feGaussianBlur stdDeviation="3.1"/>
<feComposite in2="hardAlpha" operator="out"/>
<feColorMatrix type="matrix" values="0 0 0 0 1 0 0 0 0 1 0 0 0 0 1 0 0 0 0.59 0"/>
<feBlend mode="normal" in2="BackgroundImageFix" result="effect1_dropShadow_128_100"/>
<feBlend mode="normal" in="SourceGraphic" in2="effect1_dropShadow_128_100" result="shape"/>
</filter>
<filter id="filter8_d_128_100" x="81.259" y="21.3495" width="15.5572" height="16.8505" filterUnits="userSpaceOnUse" color-interpolation-filters="sRGB">
<feFlood flood-opacity="0" result="BackgroundImageFix"/>
<feColorMatrix in="SourceAlpha" type="matrix" values="0 0 0 0 0 0 0 0 0 0 0 0 0 0 0 0 0 0 127 0" result="hardAlpha"/>
<feOffset/>
<feGaussianBlur stdDeviation="3.1"/>
<feComposite in2="hardAlpha" operator="out"/>
<feColorMatrix type="matrix" values="0 0 0 0 1 0 0 0 0 1 0 0 0 0 1 0 0 0 0.59 0"/>
<feBlend mode="normal" in2="BackgroundImageFix" result="effect1_dropShadow_128_100"/>
<feBlend mode="normal" in="SourceGraphic" in2="effect1_dropShadow_128_100" result="shape"/>
</filter>
<filter id="filter9_d_128_100" x="70.7248" y="20.9464" width="15.325" height="17.3407" filterUnits="userSpaceOnUse" color-interpolation-filters="sRGB">
<feFlood flood-opacity="0" result="BackgroundImageFix"/>
<feColorMatrix in="SourceAlpha" type="matrix" values="0 0 0 0 0 0 0 0 0 0 0 0 0 0 0 0 0 0 127 0" result="hardAlpha"/>
<feOffset/>
<feGaussianBlur stdDeviation="3.1"/>
<feComposite in2="hardAlpha" operator="out"/>
<feColorMatrix type="matrix" values="0 0 0 0 1 0 0 0 0 1 0 0 0 0 1 0 0 0 0.59 0"/>
<feBlend mode="normal" in2="BackgroundImageFix" result="effect1_dropShadow_128_100"/>
<feBlend mode="normal" in="SourceGraphic" in2="effect1_dropShadow_128_100" result="shape"/>
</filter>
<filter id="filter10_d_128_100" x="65.706" y="22.3041" width="15.1283" height="15.8959" filterUnits="userSpaceOnUse" color-interpolation-filters="sRGB">
<feFlood flood-opacity="0" result="BackgroundImageFix"/>
<feColorMatrix in="SourceAlpha" type="matrix" values="0 0 0 0 0 0 0 0 0 0 0 0 0 0 0 0 0 0 127 0" result="hardAlpha"/>
<feOffset/>
<feGaussianBlur stdDeviation="3.1"/>
<feComposite in2="hardAlpha" operator="out"/>
<feColorMatrix type="matrix" values="0 0 0 0 1 0 0 0 0 1 0 0 0 0 1 0 0 0 0.59 0"/>
<feBlend mode="normal" in2="BackgroundImageFix" result="effect1_dropShadow_128_100"/>
<feBlend mode="normal" in="SourceGraphic" in2="effect1_dropShadow_128_100" result="shape"/>
</filter>
<filter id="filter11_d_128_100" x="60.3356" y="22.3041" width="15.4217" height="15.983" filterUnits="userSpaceOnUse" color-interpolation-filters="sRGB">
<feFlood flood-opacity="0" result="BackgroundImageFix"/>
<feColorMatrix in="SourceAlpha" type="matrix" values="0 0 0 0 0 0 0 0 0 0 0 0 0 0 0 0 0 0 127 0" result="hardAlpha"/>
<feOffset/>
<feGaussianBlur stdDeviation="3.1"/>
<feComposite in2="hardAlpha" operator="out"/>
<feColorMatrix type="matrix" values="0 0 0 0 1 0 0 0 0 1 0 0 0 0 1 0 0 0 0.59 0"/>
<feBlend mode="normal" in2="BackgroundImageFix" result="effect1_dropShadow_128_100"/>
<feBlend mode="normal" in="SourceGraphic" in2="effect1_dropShadow_128_100" result="shape"/>
</filter>
<filter id="filter12_d_128_100" x="55.1459" y="21.5462" width="15.3604" height="16.7409" filterUnits="userSpaceOnUse" color-interpolation-filters="sRGB">
<feFlood flood-opacity="0" result="BackgroundImageFix"/>
<feColorMatrix in="SourceAlpha" type="matrix" values="0 0 0 0 0 0 0 0 0 0 0 0 0 0 0 0 0 0 127 0" result="hardAlpha"/>
<feOffset/>
<feGaussianBlur stdDeviation="3.1"/>
<feComposite in2="hardAlpha" operator="out"/>
<feColorMatrix type="matrix" values="0 0 0 0 1 0 0 0 0 1 0 0 0 0 1 0 0 0 0.59 0"/>
<feBlend mode="normal" in2="BackgroundImageFix" result="effect1_dropShadow_128_100"/>
<feBlend mode="normal" in="SourceGraphic" in2="effect1_dropShadow_128_100" result="shape"/>
</filter>
<filter id="filter13_d_128_100" x="50.04" y="22.3041" width="15.1283" height="15.8959" filterUnits="userSpaceOnUse" color-interpolation-filters="sRGB">
<feFlood flood-opacity="0" result="BackgroundImageFix"/>
<feColorMatrix in="SourceAlpha" type="matrix" values="0 0 0 0 0 0 0 0 0 0 0 0 0 0 0 0 0 0 127 0" result="hardAlpha"/>
<feOffset/>
<feGaussianBlur stdDeviation="3.1"/>
<feComposite in2="hardAlpha" operator="out"/>
<feColorMatrix type="matrix" values="0 0 0 0 1 0 0 0 0 1 0 0 0 0 1 0 0 0 0.59 0"/>
<feBlend mode="normal" in2="BackgroundImageFix" result="effect1_dropShadow_128_100"/>
<feBlend mode="normal" in="SourceGraphic" in2="effect1_dropShadow_128_100" result="shape"/>
</filter>
<filter id="filter14_d_128_100" x="44.6406" y="22.3041" width="15.4767" height="15.983" filterUnits="userSpaceOnUse" color-interpolation-filters="sRGB">
<feFlood flood-opacity="0" result="BackgroundImageFix"/>
<feColorMatrix in="SourceAlpha" type="matrix" values="0 0 0 0 0 0 0 0 0 0 0 0 0 0 0 0 0 0 127 0" result="hardAlpha"/>
<feOffset/>
<feGaussianBlur stdDeviation="3.1"/>
<feComposite in2="hardAlpha" operator="out"/>
<feColorMatrix type="matrix" values="0 0 0 0 1 0 0 0 0 1 0 0 0 0 1 0 0 0 0.59 0"/>
<feBlend mode="normal" in2="BackgroundImageFix" result="effect1_dropShadow_128_100"/>
<feBlend mode="normal" in="SourceGraphic" in2="effect1_dropShadow_128_100" result="shape"/>
</filter>
<filter id="filter15_d_128_100" x="39.6284" y="22.3073" width="15.296" height="15.8927" filterUnits="userSpaceOnUse" color-interpolation-filters="sRGB">
<feFlood flood-opacity="0" result="BackgroundImageFix"/>
<feColorMatrix in="SourceAlpha" type="matrix" values="0 0 0 0 0 0 0 0 0 0 0 0 0 0 0 0 0 0 127 0" result="hardAlpha"/>
<feOffset/>
<feGaussianBlur stdDeviation="3.1"/>
<feComposite in2="hardAlpha" operator="out"/>
<feColorMatrix type="matrix" values="0 0 0 0 1 0 0 0 0 1 0 0 0 0 1 0 0 0 0.59 0"/>
<feBlend mode="normal" in2="BackgroundImageFix" result="effect1_dropShadow_128_100"/>
<feBlend mode="normal" in="SourceGraphic" in2="effect1_dropShadow_128_100" result="shape"/>
</filter>
<filter id="filter16_d_128_100" x="34.6191" y="21.3495" width="15.138" height="16.8505" filterUnits="userSpaceOnUse" color-interpolation-filters="sRGB">
<feFlood flood-opacity="0" result="BackgroundImageFix"/>
<feColorMatrix in="SourceAlpha" type="matrix" values="0 0 0 0 0 0 0 0 0 0 0 0 0 0 0 0 0 0 127 0" result="hardAlpha"/>
<feOffset/>
<feGaussianBlur stdDeviation="3.1"/>
<feComposite in2="hardAlpha" operator="out"/>
<feColorMatrix type="matrix" values="0 0 0 0 1 0 0 0 0 1 0 0 0 0 1 0 0 0 0.59 0"/>
<feBlend mode="normal" in2="BackgroundImageFix" result="effect1_dropShadow_128_100"/>
<feBlend mode="normal" in="SourceGraphic" in2="effect1_dropShadow_128_100" result="shape"/>
</filter>
<filter id="filter17_d_128_100" x="116.79" y="9.36757" width="16.3075" height="19.8324" filterUnits="userSpaceOnUse" color-interpolation-filters="sRGB">
<feFlood flood-opacity="0" result="BackgroundImageFix"/>
<feColorMatrix in="SourceAlpha" type="matrix" values="0 0 0 0 0 0 0 0 0 0 0 0 0 0 0 0 0 0 127 0" result="hardAlpha"/>
<feOffset/>
<feGaussianBlur stdDeviation="3.1"/>
<feComposite in2="hardAlpha" operator="out"/>
<feColorMatrix type="matrix" values="0 0 0 0 1 0 0 0 0 1 0 0 0 0 1 0 0 0 0.59 0"/>
<feBlend mode="normal" in2="BackgroundImageFix" result="effect1_dropShadow_128_100"/>
<feBlend mode="normal" in="SourceGraphic" in2="effect1_dropShadow_128_100" result="shape"/>
</filter>
<filter id="filter18_d_128_100" x="110.59" y="10.5677" width="16.7376" height="18.7598" filterUnits="userSpaceOnUse" color-interpolation-filters="sRGB">
<feFlood flood-opacity="0" result="BackgroundImageFix"/>
<feColorMatrix in="SourceAlpha" type="matrix" values="0 0 0 0 0 0 0 0 0 0 0 0 0 0 0 0 0 0 127 0" result="hardAlpha"/>
<feOffset/>
<feGaussianBlur stdDeviation="3.1"/>
<feComposite in2="hardAlpha" operator="out"/>
<feColorMatrix type="matrix" values="0 0 0 0 1 0 0 0 0 1 0 0 0 0 1 0 0 0 0.59 0"/>
<feBlend mode="normal" in2="BackgroundImageFix" result="effect1_dropShadow_128_100"/>
<feBlend mode="normal" in="SourceGraphic" in2="effect1_dropShadow_128_100" result="shape"/>
</filter>
<filter id="filter19_d_128_100" x="104.952" y="11.6828" width="16.6432" height="17.5172" filterUnits="userSpaceOnUse" color-interpolation-filters="sRGB">
<feFlood flood-opacity="0" result="BackgroundImageFix"/>
<feColorMatrix in="SourceAlpha" type="matrix" values="0 0 0 0 0 0 0 0 0 0 0 0 0 0 0 0 0 0 127 0" result="hardAlpha"/>
<feOffset/>
<feGaussianBlur stdDeviation="3.1"/>
<feComposite in2="hardAlpha" operator="out"/>
<feColorMatrix type="matrix" values="0 0 0 0 1 0 0 0 0 1 0 0 0 0 1 0 0 0 0.59 0"/>
<feBlend mode="normal" in2="BackgroundImageFix" result="effect1_dropShadow_128_100"/>
<feBlend mode="normal" in="SourceGraphic" in2="effect1_dropShadow_128_100" result="shape"/>
</filter>
<filter id="filter20_d_128_100" x="98.7375" y="11.6781" width="16.9029" height="17.6495" filterUnits="userSpaceOnUse" color-interpolation-filters="sRGB">
<feFlood flood-opacity="0" result="BackgroundImageFix"/>
<feColorMatrix in="SourceAlpha" type="matrix" values="0 0 0 0 0 0 0 0 0 0 0 0 0 0 0 0 0 0 127 0" result="hardAlpha"/>
<feOffset/>
<feGaussianBlur stdDeviation="3.1"/>
<feComposite in2="hardAlpha" operator="out"/>
<feColorMatrix type="matrix" values="0 0 0 0 1 0 0 0 0 1 0 0 0 0 1 0 0 0 0.59 0"/>
<feBlend mode="normal" in2="BackgroundImageFix" result="effect1_dropShadow_128_100"/>
<feBlend mode="normal" in="SourceGraphic" in2="effect1_dropShadow_128_100" result="shape"/>
</filter>
<filter id="filter21_d_128_100" x="93.194" y="9.70305" width="16.3973" height="19.497" filterUnits="userSpaceOnUse" color-interpolation-filters="sRGB">
<feFlood flood-opacity="0" result="BackgroundImageFix"/>
<feColorMatrix in="SourceAlpha" type="matrix" values="0 0 0 0 0 0 0 0 0 0 0 0 0 0 0 0 0 0 127 0" result="hardAlpha"/>
<feOffset/>
<feGaussianBlur stdDeviation="3.1"/>
<feComposite in2="hardAlpha" operator="out"/>
<feColorMatrix type="matrix" values="0 0 0 0 1 0 0 0 0 1 0 0 0 0 1 0 0 0 0.59 0"/>
<feBlend mode="normal" in2="BackgroundImageFix" result="effect1_dropShadow_128_100"/>
<feBlend mode="normal" in="SourceGraphic" in2="effect1_dropShadow_128_100" result="shape"/>
</filter>
<filter id="filter22_d_128_100" x="87.2631" y="10.2795" width="16.8463" height="18.9205" filterUnits="userSpaceOnUse" color-interpolation-filters="sRGB">
<feFlood flood-opacity="0" result="BackgroundImageFix"/>
<feColorMatrix in="SourceAlpha" type="matrix" values="0 0 0 0 0 0 0 0 0 0 0 0 0 0 0 0 0 0 127 0" result="hardAlpha"/>
<feOffset/>
<feGaussianBlur stdDeviation="3.1"/>
<feComposite in2="hardAlpha" operator="out"/>
<feColorMatrix type="matrix" values="0 0 0 0 1 0 0 0 0 1 0 0 0 0 1 0 0 0 0.59 0"/>
<feBlend mode="normal" in2="BackgroundImageFix" result="effect1_dropShadow_128_100"/>
<feBlend mode="normal" in="SourceGraphic" in2="effect1_dropShadow_128_100" result="shape"/>
</filter>
<filter id="filter23_d_128_100" x="75.6613" y="9.68889" width="16.9737" height="19.5111" filterUnits="userSpaceOnUse" color-interpolation-filters="sRGB">
<feFlood flood-opacity="0" result="BackgroundImageFix"/>
<feColorMatrix in="SourceAlpha" type="matrix" values="0 0 0 0 0 0 0 0 0 0 0 0 0 0 0 0 0 0 127 0" result="hardAlpha"/>
<feOffset/>
<feGaussianBlur stdDeviation="3.1"/>
<feComposite in2="hardAlpha" operator="out"/>
<feColorMatrix type="matrix" values="0 0 0 0 1 0 0 0 0 1 0 0 0 0 1 0 0 0 0.59 0"/>
<feBlend mode="normal" in2="BackgroundImageFix" result="effect1_dropShadow_128_100"/>
<feBlend mode="normal" in="SourceGraphic" in2="effect1_dropShadow_128_100" result="shape"/>
</filter>
<filter id="filter24_d_128_100" x="69.7729" y="11.6781" width="16.3973" height="17.5219" filterUnits="userSpaceOnUse" color-interpolation-filters="sRGB">
<feFlood flood-opacity="0" result="BackgroundImageFix"/>
<feColorMatrix in="SourceAlpha" type="matrix" values="0 0 0 0 0 0 0 0 0 0 0 0 0 0 0 0 0 0 127 0" result="hardAlpha"/>
<feOffset/>
<feGaussianBlur stdDeviation="3.1"/>
<feComposite in2="hardAlpha" operator="out"/>
<feColorMatrix type="matrix" values="0 0 0 0 1 0 0 0 0 1 0 0 0 0 1 0 0 0 0.59 0"/>
<feBlend mode="normal" in2="BackgroundImageFix" result="effect1_dropShadow_128_100"/>
<feBlend mode="normal" in="SourceGraphic" in2="effect1_dropShadow_128_100" result="shape"/>
</filter>
<filter id="filter25_d_128_100" x="63.6057" y="11.6781" width="16.9029" height="17.6495" filterUnits="userSpaceOnUse" color-interpolation-filters="sRGB">
<feFlood flood-opacity="0" result="BackgroundImageFix"/>
<feColorMatrix in="SourceAlpha" type="matrix" values="0 0 0 0 0 0 0 0 0 0 0 0 0 0 0 0 0 0 127 0" result="hardAlpha"/>
<feOffset/>
<feGaussianBlur stdDeviation="3.1"/>
<feComposite in2="hardAlpha" operator="out"/>
<feColorMatrix type="matrix" values="0 0 0 0 1 0 0 0 0 1 0 0 0 0 1 0 0 0 0.59 0"/>
<feBlend mode="normal" in2="BackgroundImageFix" result="effect1_dropShadow_128_100"/>
<feBlend mode="normal" in="SourceGraphic" in2="effect1_dropShadow_128_100" result="shape"/>
</filter>
<filter id="filter26_d_128_100" x="58.0622" y="9.70305" width="16.3973" height="19.497" filterUnits="userSpaceOnUse" color-interpolation-filters="sRGB">
<feFlood flood-opacity="0" result="BackgroundImageFix"/>
<feColorMatrix in="SourceAlpha" type="matrix" values="0 0 0 0 0 0 0 0 0 0 0 0 0 0 0 0 0 0 127 0" result="hardAlpha"/>
<feOffset/>
<feGaussianBlur stdDeviation="3.1"/>
<feComposite in2="hardAlpha" operator="out"/>
<feColorMatrix type="matrix" values="0 0 0 0 1 0 0 0 0 1 0 0 0 0 1 0 0 0 0.59 0"/>
<feBlend mode="normal" in2="BackgroundImageFix" result="effect1_dropShadow_128_100"/>
<feBlend mode="normal" in="SourceGraphic" in2="effect1_dropShadow_128_100" result="shape"/>
</filter>
<filter id="filter27_d_128_100" x="51.9707" y="11.6781" width="16.6524" height="17.6495" filterUnits="userSpaceOnUse" color-interpolation-filters="sRGB">
<feFlood flood-opacity="0" result="BackgroundImageFix"/>
<feColorMatrix in="SourceAlpha" type="matrix" values="0 0 0 0 0 0 0 0 0 0 0 0 0 0 0 0 0 0 127 0" result="hardAlpha"/>
<feOffset/>
<feGaussianBlur stdDeviation="3.1"/>
<feComposite in2="hardAlpha" operator="out"/>
<feColorMatrix type="matrix" values="0 0 0 0 1 0 0 0 0 1 0 0 0 0 1 0 0 0 0.59 0"/>
<feBlend mode="normal" in2="BackgroundImageFix" result="effect1_dropShadow_128_100"/>
<feBlend mode="normal" in="SourceGraphic" in2="effect1_dropShadow_128_100" result="shape"/>
</filter>
<filter id="filter28_d_128_100" x="46.0397" y="11.6781" width="16.9029" height="17.6495" filterUnits="userSpaceOnUse" color-interpolation-filters="sRGB">
<feFlood flood-opacity="0" result="BackgroundImageFix"/>
<feColorMatrix in="SourceAlpha" type="matrix" values="0 0 0 0 0 0 0 0 0 0 0 0 0 0 0 0 0 0 127 0" result="hardAlpha"/>
<feOffset/>
<feGaussianBlur stdDeviation="3.1"/>
<feComposite in2="hardAlpha" operator="out"/>
<feColorMatrix type="matrix" values="0 0 0 0 1 0 0 0 0 1 0 0 0 0 1 0 0 0 0.59 0"/>
<feBlend mode="normal" in2="BackgroundImageFix" result="effect1_dropShadow_128_100"/>
<feBlend mode="normal" in="SourceGraphic" in2="effect1_dropShadow_128_100" result="shape"/>
</filter>
<filter id="filter29_d_128_100" x="40.4963" y="9.70305" width="16.3973" height="19.497" filterUnits="userSpaceOnUse" color-interpolation-filters="sRGB">
<feFlood flood-opacity="0" result="BackgroundImageFix"/>
<feColorMatrix in="SourceAlpha" type="matrix" values="0 0 0 0 0 0 0 0 0 0 0 0 0 0 0 0 0 0 127 0" result="hardAlpha"/>
<feOffset/>
<feGaussianBlur stdDeviation="3.1"/>
<feComposite in2="hardAlpha" operator="out"/>
<feColorMatrix type="matrix" values="0 0 0 0 1 0 0 0 0 1 0 0 0 0 1 0 0 0 0.59 0"/>
<feBlend mode="normal" in2="BackgroundImageFix" result="effect1_dropShadow_128_100"/>
<feBlend mode="normal" in="SourceGraphic" in2="effect1_dropShadow_128_100" result="shape"/>
</filter>
<filter id="filter30_d_128_100" x="34.0976" y="10.1472" width="17.2857" height="19.1804" filterUnits="userSpaceOnUse" color-interpolation-filters="sRGB">
<feFlood flood-opacity="0" result="BackgroundImageFix"/>
<feColorMatrix in="SourceAlpha" type="matrix" values="0 0 0 0 0 0 0 0 0 0 0 0 0 0 0 0 0 0 127 0" result="hardAlpha"/>
<feOffset/>
<feGaussianBlur stdDeviation="3.1"/>
<feComposite in2="hardAlpha" operator="out"/>
<feColorMatrix type="matrix" values="0 0 0 0 1 0 0 0 0 1 0 0 0 0 1 0 0 0 0.59 0"/>
<feBlend mode="normal" in2="BackgroundImageFix" result="effect1_dropShadow_128_100"/>
<feBlend mode="normal" in="SourceGraphic" in2="effect1_dropShadow_128_100" result="shape"/>
</filter>
</defs>
</svg>
