<svg width="18" height="18" viewBox="0 0 18 18" fill="none" xmlns="http://www.w3.org/2000/svg">
<path d="M9.00442 1.50524C8.01944 1.50156 7.04351 1.69337 6.13319 2.06955C5.22286 2.44573 4.39622 2.99881 3.70117 3.69674C0.77767 6.62099 0.77767 11.379 3.70117 14.3032C5.11492 15.717 6.99817 16.4955 9.00442 16.4955C11.0107 16.4955 12.8947 15.717 14.3077 14.3032C17.2312 11.3797 17.2312 6.62174 14.3077 3.69674C13.6126 2.99884 12.786 2.44579 11.8756 2.06961C10.9653 1.69343 9.9894 1.5016 9.00442 1.50524ZM13.2472 13.242C12.1169 14.3722 10.6094 14.9947 9.00442 14.9947C7.39942 14.9947 5.89192 14.3722 4.76167 13.242C2.42317 10.9027 2.42317 7.09649 4.76167 4.75724C5.89192 3.62699 7.39867 3.00524 9.00442 3.00524C10.6102 3.00524 12.1169 3.62699 13.2472 4.75724C15.5857 7.09649 15.5857 10.9027 13.2472 13.242Z" fill="white"/>
<path d="M8.6002 8.34375L6.1897 10.7542L7.2502 11.8148L9.6607 9.40425L11.2544 10.9973V6.75H7.0072L8.6002 8.34375Z" fill="white"/>
</svg>
